<?xml version='1.0' encoding='utf-8'?>
<mxfile host="app.diagrams.net"><diagram name="Class Diagram"><mxGraphModel dx="1216" dy="841" grid="1" gridSize="10" guides="1" tooltips="1" connect="1" arrows="1" fold="1" page="1" pageScale="1" pageWidth="827" pageHeight="1169" math="0" shadow="0"><root><mxCell id="0" /><mxCell id="1" parent="0" /><mxCell id="816ae716-73eb-4416-82eb-9b4c8ef03983" value="Project" style="swimlane;html=1;rounded=0;whiteSpace=wrap;container=1;" vertex="1" parent="1"><mxGeometry x="40" y="40" width="160" height="80" as_="geometry" /></mxCell><mxCell id="e13e35c0-5ec8-4a1b-83fa-89063370d060" value="Activities" style="swimlane;html=1;rounded=0;whiteSpace=wrap;container=1;" vertex="1" parent="1"><mxGeometry x="40" y="140" width="160" height="80" as_="geometry" /></mxCell><mxCell id="d79ea14e-a0a0-4a0d-8a2c-8844e595e3e6" value="Stats" style="swimlane;html=1;rounded=0;whiteSpace=wrap;container=1;" vertex="1" parent="1"><mxGeometry x="40" y="240" width="160" height="80" as_="geometry" /></mxCell><mxCell id="0ff39190-7a2b-4a33-9cd4-bb4a76671174" value="Users" style="swimlane;html=1;rounded=0;whiteSpace=wrap;container=1;" vertex="1" parent="1"><mxGeometry x="40" y="340" width="160" height="80" as_="geometry" /></mxCell><mxCell id="f6e42b9e-e108-4692-a059-c245d5a4e2b3" value="User" style="swimlane;html=1;rounded=0;whiteSpace=wrap;container=1;" vertex="1" parent="1"><mxGeometry x="40" y="440" width="160" height="80" as_="geometry" /></mxCell><mxCell id="919e1928-9ac7-4e44-bcd6-4c3b66077627" value="Requirements" style="swimlane;html=1;rounded=0;whiteSpace=wrap;container=1;" vertex="1" parent="1"><mxGeometry x="40" y="540" width="160" height="80" as_="geometry" /></mxCell><mxCell id="5e2727d1-e15b-4062-b7e8-71910a694a97" value="Epics" style="swimlane;html=1;rounded=0;whiteSpace=wrap;container=1;" vertex="1" parent="1"><mxGeometry x="40" y="640" width="160" height="80" as_="geometry" /></mxCell><mxCell id="df119f97-f549-45a5-a68b-d23f35e3e8d8" value="Sprint Snapshots" style="swimlane;html=1;rounded=0;whiteSpace=wrap;container=1;" vertex="1" parent="1"><mxGeometry x="40" y="740" width="160" height="80" as_="geometry" /></mxCell><mxCell id="f54709fc-3ec3-4763-9f93-831c15deda0f" value="Snapshot" style="swimlane;html=1;rounded=0;whiteSpace=wrap;container=1;" vertex="1" parent="1"><mxGeometry x="40" y="840" width="160" height="80" as_="geometry" /></mxCell><mxCell id="3f1c1038-76c6-447a-b0e8-51b0b081cbd9" value="Settings" style="swimlane;html=1;rounded=0;whiteSpace=wrap;container=1;" vertex="1" parent="1"><mxGeometry x="40" y="940" width="160" height="80" as_="geometry" /></mxCell></root></mxGraphModel></diagram></mxfile>